<?xml version="1.0" standalone="no"?>
<!DOCTYPE svg PUBLIC "-//W3C//DTD SVG 20010904//EN"
 "http://www.w3.org/TR/2001/REC-SVG-20010904/DTD/svg10.dtd">
<svg version="1.0" xmlns="http://www.w3.org/2000/svg"
 width="338.000000pt" height="338.000000pt" viewBox="0 0 338.000000 338.000000"
 preserveAspectRatio="xMidYMid meet">
<metadata>
Created by potrace 1.11, written by Peter Selinger 2001-2013
</metadata>
<g transform="translate(0.000000,338.000000) scale(0.100000,-0.100000)"
fill="#000000" stroke="none">
<path d="M3133 3333 c3 -5 -8 -18 -26 -28 -18 -11 -36 -23 -42 -27 -5 -4 -24
-19 -41 -33 -18 -14 -37 -25 -43 -25 -6 0 -11 -4 -11 -10 0 -5 -7 -10 -15 -10
-8 0 -15 -4 -15 -8 0 -5 -12 -15 -27 -23 -16 -8 -33 -19 -39 -25 -7 -6 -44
-32 -83 -59 -39 -27 -71 -53 -71 -57 0 -5 -4 -6 -10 -3 -5 3 -17 -3 -27 -15
-10 -11 -23 -20 -30 -20 -7 0 -13 -4 -13 -10 0 -5 -7 -10 -15 -10 -8 0 -15 -4
-15 -8 0 -4 -15 -16 -32 -27 -18 -10 -42 -27 -52 -37 -11 -10 -26 -18 -33 -18
-7 0 -13 -4 -13 -8 0 -5 -16 -17 -35 -28 -19 -10 -35 -22 -35 -26 0 -4 -16
-15 -35 -24 -19 -9 -35 -20 -35 -25 0 -5 -6 -9 -14 -9 -8 0 -16 -3 -18 -7 -1
-5 -23 -21 -48 -38 -54 -36 -191 -131 -205 -143 -13 -10 -122 -84 -143 -97 -9
-5 -19 -13 -22 -16 -4 -5 -91 -66 -155 -109 -117 -79 -184 -126 -202 -143 -13
-11 -23 -17 -23 -14 0 4 -8 -1 -19 -10 -10 -10 -65 -49 -121 -88 -57 -38 -109
-76 -116 -83 -8 -7 -14 -11 -14 -7 0 3 -6 1 -13 -4 -56 -46 -76 -61 -86 -61
-6 0 -11 -4 -11 -10 0 -5 -6 -10 -14 -10 -8 0 -16 -3 -18 -8 -4 -9 -103 -82
-113 -82 -3 0 -13 -6 -20 -12 -33 -29 -45 -38 -53 -38 -5 0 -9 -7 -9 -15 0 -9
10 -15 23 -15 13 0 26 -5 29 -10 4 -6 10 -8 15 -5 5 3 11 1 15 -5 4 -6 11 -8
16 -5 5 4 9 3 9 -2 0 -4 17 -13 38 -20 20 -6 51 -17 67 -24 17 -7 32 -13 35
-14 25 -8 48 -18 62 -26 10 -5 23 -9 31 -9 7 0 29 -9 49 -19 19 -11 39 -17 42
-13 4 3 11 1 15 -6 4 -7 18 -15 32 -17 13 -3 33 -9 44 -14 25 -12 58 -24 67
-25 3 -1 10 -4 14 -9 4 -4 15 -7 25 -7 11 0 17 -7 16 -19 0 -11 -4 -18 -7 -16
-3 2 -15 -8 -26 -22 -18 -25 -94 -111 -141 -160 -12 -13 -21 -23 -19 -23 2 0
-15 -19 -38 -43 -23 -23 -68 -73 -101 -111 -33 -38 -76 -86 -95 -107 -19 -21
-55 -61 -80 -90 -25 -28 -60 -67 -78 -85 -19 -19 -32 -34 -30 -34 3 0 -17 -22
-44 -50 -26 -27 -48 -54 -48 -60 0 -6 -4 -8 -10 -5 -6 3 -10 1 -10 -4 0 -6
-18 -29 -40 -51 -22 -22 -40 -42 -40 -45 0 -2 -15 -20 -32 -38 -18 -19 -60
-65 -93 -102 -33 -38 -76 -86 -95 -106 -19 -21 -55 -62 -80 -90 -25 -29 -64
-72 -87 -96 -24 -24 -43 -45 -43 -48 0 -2 -16 -19 -35 -38 -49 -48 -44 -53 18
-18 30 17 56 28 59 26 3 -3 11 1 18 10 7 8 21 15 31 15 11 0 19 4 19 9 0 8 37
24 53 22 4 -1 7 4 7 9 0 6 5 10 11 10 15 0 118 50 124 61 4 5 10 7 15 4 5 -3
16 5 24 17 10 14 16 17 16 8 0 -9 6 -6 16 8 8 12 19 20 24 17 5 -3 15 2 23 10
12 11 17 12 20 2 3 -7 6 -4 6 6 1 10 6 15 11 12 6 -3 10 -1 10 5 0 6 4 9 9 5
5 -3 15 1 23 8 7 8 19 12 26 9 6 -2 15 3 18 12 3 9 10 13 16 10 5 -3 16 2 23
12 9 12 14 14 15 6 0 -7 5 -10 10 -7 6 4 8 11 5 16 -4 5 6 9 20 9 15 0 24 4
20 10 -4 6 5 10 20 10 14 0 28 6 31 14 3 8 12 12 20 9 8 -3 14 0 14 6 0 6 9
11 19 11 11 0 23 5 27 12 5 7 3 8 -6 3 -8 -5 -11 -4 -7 3 4 5 16 8 27 5 12 -3
20 0 20 6 0 7 5 9 10 6 6 -3 10 -1 10 4 0 6 6 10 13 8 6 -1 11 3 10 10 -2 7 3
10 11 7 7 -3 21 2 30 11 10 11 16 12 16 4 0 -7 8 -2 19 9 10 12 21 19 24 15 4
-3 13 0 21 6 8 7 21 9 27 5 8 -4 9 -3 5 4 -6 11 6 16 27 13 4 0 7 4 7 10 0 5
4 8 9 4 5 -3 15 0 23 7 7 7 20 14 28 16 8 2 17 7 20 10 3 4 12 8 20 10 8 2 26
11 40 20 14 9 32 16 40 17 8 0 13 7 12 15 -2 8 0 12 4 8 4 -4 14 -2 22 5 13
10 14 9 7 -3 -4 -8 4 -4 20 10 16 14 25 18 21 10 -5 -9 -2 -8 7 2 8 10 17 14
21 10 4 -4 12 1 17 10 5 10 16 15 23 12 7 -3 16 2 19 10 4 9 13 13 22 10 8 -3
15 -1 15 5 0 6 9 11 20 11 11 0 23 6 26 14 3 8 12 12 20 9 8 -3 14 0 14 6 0 6
9 11 19 11 11 0 23 5 26 10 4 6 11 8 16 5 5 -4 9 -1 9 5 0 6 4 9 9 5 5 -3 12
-1 16 5 4 6 11 7 17 4 7 -5 9 -2 6 7 -4 10 1 15 15 16 11 1 24 7 28 14 4 7 18
13 31 15 12 1 37 8 53 15 17 7 33 12 38 11 4 -1 7 2 7 8 0 6 3 9 8 9 12 -3 72
25 72 33 0 4 7 8 15 8 9 0 27 7 40 16 14 9 25 12 25 8 0 -5 4 -4 8 2 8 12 123
69 135 66 4 -1 7 3 7 9 0 5 5 7 10 4 6 -3 10 -2 10 4 0 5 9 13 21 16 55 18
412 199 399 202 -8 3 -22 7 -30 10 -8 4 -17 7 -20 8 -3 0 -30 9 -60 20 -30 11
-58 18 -62 17 -5 -1 -8 2 -8 8 0 5 -7 7 -15 4 -8 -4 -15 -1 -15 7 0 7 -3 10
-6 6 -3 -3 -30 3 -59 14 -30 11 -62 22 -72 24 -10 2 -41 13 -69 24 -29 11 -54
17 -58 14 -3 -4 -6 -1 -6 5 0 7 -3 11 -7 11 -19 -4 -73 15 -73 24 0 6 -3 8 -6
4 -4 -3 -22 0 -40 8 -19 8 -34 11 -34 8 0 -3 -7 0 -15 7 -8 6 -18 9 -24 6 -5
-3 -11 -2 -13 3 -1 6 -14 12 -28 15 -45 10 -100 31 -100 38 0 4 -7 5 -15 2
-22 -9 -19 23 7 59 12 18 26 34 30 35 4 2 8 8 8 14 0 5 11 24 25 42 14 18 25
38 25 44 0 6 3 12 8 14 4 2 25 31 47 65 22 35 43 63 48 63 4 0 7 7 7 15 0 8 5
15 10 15 6 0 10 4 10 9 0 8 117 190 129 201 3 3 12 17 20 32 8 15 21 36 30 46
19 21 38 51 48 72 4 8 10 17 14 20 4 3 15 19 25 36 11 18 51 78 89 134 39 56
75 109 80 118 6 9 24 36 41 62 16 25 34 52 38 60 17 36 36 64 36 55 0 -5 9 7
19 28 9 20 20 34 24 30 4 -3 7 -2 7 4 0 9 95 161 118 188 4 6 38 55 75 110 37
55 74 110 82 122 12 16 13 23 4 29 -7 4 -10 3 -6 -3z"/>
</g>
</svg>
